<svg xmlns="http://www.w3.org/2000/svg" width="820" height="690" viewBox="0 0 820 690">
<style>text { font-family: Arial, sans-serif; font-size: 12px; fill: #111; }</style>
<text x="410.0" y="26" text-anchor="middle">多因素 Logistic 回归（全变量）</text>
<text x="410.0" y="672" text-anchor="middle">log10(OR)</text>
<text x="18" y="340.0" text-anchor="middle" transform="rotate(-90,18,340.0)">变量</text>
<line x1="600" y1="24" x2="616" y2="24" stroke="#495057" />
<circle cx="608" cy="24" r="3" fill="#2F6690" />
<text x="622" y="28">OR 与 95% CI</text>
<line x1="600" y1="40" x2="616" y2="40" stroke="#C8553D" stroke-dasharray="4 2" />
<text x="622" y="44">OR=1 参考线</text>
<line x1="260" y1="636" x2="780" y2="636" stroke="#495057" />
<line x1="260" y1="50" x2="260" y2="630" stroke="#495057" />
<line x1="260" y1="56.0" x2="254" y2="56.0" stroke="#495057" />
<line x1="260" y1="56.0" x2="780" y2="56.0" stroke="#E6E6E6" />
<line x1="260" y1="79.2" x2="254" y2="79.2" stroke="#495057" />
<line x1="260" y1="79.2" x2="780" y2="79.2" stroke="#E6E6E6" />
<line x1="260" y1="102.4" x2="254" y2="102.4" stroke="#495057" />
<line x1="260" y1="102.4" x2="780" y2="102.4" stroke="#E6E6E6" />
<line x1="260" y1="125.6" x2="254" y2="125.6" stroke="#495057" />
<line x1="260" y1="125.6" x2="780" y2="125.6" stroke="#E6E6E6" />
<line x1="260" y1="148.8" x2="254" y2="148.8" stroke="#495057" />
<line x1="260" y1="148.8" x2="780" y2="148.8" stroke="#E6E6E6" />
<line x1="260" y1="172.0" x2="254" y2="172.0" stroke="#495057" />
<line x1="260" y1="172.0" x2="780" y2="172.0" stroke="#E6E6E6" />
<line x1="260" y1="195.2" x2="254" y2="195.2" stroke="#495057" />
<line x1="260" y1="195.2" x2="780" y2="195.2" stroke="#E6E6E6" />
<line x1="260" y1="218.4" x2="254" y2="218.4" stroke="#495057" />
<line x1="260" y1="218.4" x2="780" y2="218.4" stroke="#E6E6E6" />
<line x1="260" y1="241.6" x2="254" y2="241.6" stroke="#495057" />
<line x1="260" y1="241.6" x2="780" y2="241.6" stroke="#E6E6E6" />
<line x1="260" y1="264.79999999999995" x2="254" y2="264.79999999999995" stroke="#495057" />
<line x1="260" y1="264.79999999999995" x2="780" y2="264.79999999999995" stroke="#E6E6E6" />
<line x1="260" y1="288.0" x2="254" y2="288.0" stroke="#495057" />
<line x1="260" y1="288.0" x2="780" y2="288.0" stroke="#E6E6E6" />
<line x1="260" y1="311.2" x2="254" y2="311.2" stroke="#495057" />
<line x1="260" y1="311.2" x2="780" y2="311.2" stroke="#E6E6E6" />
<line x1="260" y1="334.4" x2="254" y2="334.4" stroke="#495057" />
<line x1="260" y1="334.4" x2="780" y2="334.4" stroke="#E6E6E6" />
<line x1="260" y1="357.59999999999997" x2="254" y2="357.59999999999997" stroke="#495057" />
<line x1="260" y1="357.59999999999997" x2="780" y2="357.59999999999997" stroke="#E6E6E6" />
<line x1="260" y1="380.8" x2="254" y2="380.8" stroke="#495057" />
<line x1="260" y1="380.8" x2="780" y2="380.8" stroke="#E6E6E6" />
<line x1="260" y1="404.0" x2="254" y2="404.0" stroke="#495057" />
<line x1="260" y1="404.0" x2="780" y2="404.0" stroke="#E6E6E6" />
<line x1="260" y1="427.2" x2="254" y2="427.2" stroke="#495057" />
<line x1="260" y1="427.2" x2="780" y2="427.2" stroke="#E6E6E6" />
<line x1="260" y1="450.4" x2="254" y2="450.4" stroke="#495057" />
<line x1="260" y1="450.4" x2="780" y2="450.4" stroke="#E6E6E6" />
<line x1="260" y1="473.59999999999997" x2="254" y2="473.59999999999997" stroke="#495057" />
<line x1="260" y1="473.59999999999997" x2="780" y2="473.59999999999997" stroke="#E6E6E6" />
<line x1="260" y1="496.8" x2="254" y2="496.8" stroke="#495057" />
<line x1="260" y1="496.8" x2="780" y2="496.8" stroke="#E6E6E6" />
<line x1="260" y1="520.0" x2="254" y2="520.0" stroke="#495057" />
<line x1="260" y1="520.0" x2="780" y2="520.0" stroke="#E6E6E6" />
<line x1="260" y1="543.2" x2="254" y2="543.2" stroke="#495057" />
<line x1="260" y1="543.2" x2="780" y2="543.2" stroke="#E6E6E6" />
<line x1="260" y1="566.4" x2="254" y2="566.4" stroke="#495057" />
<line x1="260" y1="566.4" x2="780" y2="566.4" stroke="#E6E6E6" />
<line x1="260" y1="589.6" x2="254" y2="589.6" stroke="#495057" />
<line x1="260" y1="589.6" x2="780" y2="589.6" stroke="#E6E6E6" />
<line x1="260" y1="612.8" x2="254" y2="612.8" stroke="#495057" />
<line x1="260" y1="612.8" x2="780" y2="612.8" stroke="#E6E6E6" />
<line x1="138.46947854314635" y1="636" x2="138.46947854314635" y2="642" stroke="#495057" />
<text x="138.46947854314635" y="654" text-anchor="middle">0.01</text>
<line x1="290.69979609930215" y1="636" x2="290.69979609930215" y2="642" stroke="#495057" />
<text x="290.69979609930215" y="654" text-anchor="middle">0.10</text>
<line x1="442.93011365545794" y1="636" x2="442.93011365545794" y2="642" stroke="#495057" />
<text x="442.93011365545794" y="654" text-anchor="middle">1.0</text>
<line x1="595.1604312116137" y1="636" x2="595.1604312116137" y2="642" stroke="#495057" />
<text x="595.1604312116137" y="654" text-anchor="middle">10.0</text>
<line x1="747.3907487677695" y1="636" x2="747.3907487677695" y2="642" stroke="#495057" />
<text x="747.3907487677695" y="654" text-anchor="middle">100.0</text>
<line x1="899.6210663239252" y1="636" x2="899.6210663239252" y2="642" stroke="#495057" />
<text x="899.6210663239252" y="654" text-anchor="middle">1.0e+03</text>
<line x1="307.8812079792968" y1="56.0" x2="463.18559103181997" y2="56.0" stroke="#495057" />
<circle cx="385.5333995055584" cy="56.0" r="3" fill="#2F6690" />
<text x="250" y="60.0" text-anchor="end">药物类型=BPs+免疫调节/抗血管生成</text>
<line x1="340.9561495208021" y1="79.2" x2="447.3272401601835" y2="79.2" stroke="#495057" />
<circle cx="394.14169484049285" cy="79.2" r="3" fill="#2F6690" />
<text x="250" y="83.2" text-anchor="end">术前牙科治疗</text>
<line x1="302.8410801616285" y1="102.4" x2="509.15258314521043" y2="102.4" stroke="#495057" />
<circle cx="405.99683165341946" cy="102.4" r="3" fill="#2F6690" />
<text x="250" y="106.4" text-anchor="end">药物类型=DMB</text>
<line x1="351.3455214993394" y1="125.6" x2="471.8937099342212" y2="125.6" stroke="#495057" />
<circle cx="411.6196157167803" cy="125.6" r="3" fill="#2F6690" />
<text x="250" y="129.6" text-anchor="end">病变特点=硬化</text>
<line x1="356.9615663535322" y1="148.8" x2="468.4971364664584" y2="148.8" stroke="#495057" />
<circle cx="412.72935140999533" cy="148.8" r="3" fill="#2F6690" />
<text x="250" y="152.8" text-anchor="end">骨膜反应</text>
<line x1="354.8037466844558" y1="172.0" x2="489.57491281498847" y2="172.0" stroke="#495057" />
<circle cx="422.1893297497221" cy="172.0" r="3" fill="#2F6690" />
<text x="250" y="176.0" text-anchor="end">白蛋白（正常）</text>
<line x1="260.0" y1="195.2" x2="599.175217485305" y2="195.2" stroke="#495057" />
<circle cx="429.5876087426525" cy="195.2" r="3" fill="#2F6690" />
<text x="250" y="199.2" text-anchor="end">药物类型=DMB+免疫调节/抗血管生成</text>
<line x1="337.29583431243276" y1="218.4" x2="522.271534973014" y2="218.4" stroke="#495057" />
<circle cx="429.78368464272336" cy="218.4" r="3" fill="#2F6690" />
<text x="250" y="222.4" text-anchor="end">病变特点=混合</text>
<line x1="352.20939388553245" y1="241.6" x2="519.1825577098658" y2="241.6" stroke="#495057" />
<circle cx="435.69597579769913" cy="241.6" r="3" fill="#2F6690" />
<text x="250" y="245.6" text-anchor="end">药物类型=BPs+DMB</text>
<line x1="441.6924086800386" y1="264.79999999999995" x2="443.439223359318" y2="264.79999999999995" stroke="#495057" />
<circle cx="442.5658160196783" cy="264.79999999999995" r="3" fill="#2F6690" />
<text x="250" y="268.79999999999995" text-anchor="end">主要药物用药时间</text>
<line x1="440.23775605425544" y1="288.0" x2="445.45211173285225" y2="288.0" stroke="#495057" />
<circle cx="442.84493389355384" cy="288.0" r="3" fill="#2F6690" />
<text x="250" y="292.0" text-anchor="end">症状至入院时间</text>
<line x1="440.51302026427106" y1="311.2" x2="445.8222309541653" y2="311.2" stroke="#495057" />
<circle cx="443.1676256092182" cy="311.2" r="3" fill="#2F6690" />
<text x="250" y="315.2" text-anchor="end">年龄</text>
<line x1="387.31067845464986" y1="334.4" x2="499.4066536097643" y2="334.4" stroke="#495057" />
<circle cx="443.3586660322071" cy="334.4" r="3" fill="#2F6690" />
<text x="250" y="338.4" text-anchor="end">血糖（正常）</text>
<line x1="397.71406217321004" y1="357.59999999999997" x2="500.60737879366246" y2="357.59999999999997" stroke="#495057" />
<circle cx="449.16072048343625" cy="357.59999999999997" r="3" fill="#2F6690" />
<text x="250" y="361.59999999999997" text-anchor="end">性别（男）</text>
<line x1="401.73471256666846" y1="380.8" x2="533.8412612624479" y2="380.8" stroke="#495057" />
<circle cx="467.78798691455825" cy="380.8" r="3" fill="#2F6690" />
<text x="250" y="384.8" text-anchor="end">死骨分离</text>
<line x1="332.40865607267494" y1="404.0" x2="613.2253345358959" y2="404.0" stroke="#495057" />
<circle cx="472.81699530428534" cy="404.0" r="3" fill="#2F6690" />
<text x="250" y="408.0" text-anchor="end">药物类型=免疫调节/抗血管生成</text>
<line x1="428.47337634211647" y1="427.2" x2="544.7098638906193" y2="427.2" stroke="#495057" />
<circle cx="486.59162011636784" cy="427.2" r="3" fill="#2F6690" />
<text x="250" y="431.2" text-anchor="end">钙离子（正常）</text>
<line x1="395.8428027066682" y1="450.4" x2="578.8606228098995" y2="450.4" stroke="#495057" />
<circle cx="487.35171275828384" cy="450.4" r="3" fill="#2F6690" />
<text x="250" y="454.4" text-anchor="end">原发病=多发性骨髓瘤</text>
<line x1="428.62837769275427" y1="473.59999999999997" x2="547.1698722789401" y2="473.59999999999997" stroke="#495057" />
<circle cx="487.8991249858472" cy="473.59999999999997" r="3" fill="#2F6690" />
<text x="250" y="477.59999999999997" text-anchor="end">血色素（正常）</text>
<line x1="410.0070626014457" y1="496.8" x2="589.3609046540187" y2="496.8" stroke="#495057" />
<circle cx="499.6839836277321" cy="496.8" r="3" fill="#2F6690" />
<text x="250" y="500.8" text-anchor="end">原发病=良性疾病</text>
<line x1="432.6331877475726" y1="520.0" x2="642.7437454309522" y2="520.0" stroke="#495057" />
<circle cx="537.6884665892624" cy="520.0" r="3" fill="#2F6690" />
<text x="250" y="524.0" text-anchor="end">手术类型=方块+修复</text>
<line x1="474.0415271812582" y1="543.2" x2="604.014146940724" y2="543.2" stroke="#495057" />
<circle cx="539.027837060991" cy="543.2" r="3" fill="#2F6690" />
<text x="250" y="547.2" text-anchor="end">手术类型=颌下腺转位+重建板</text>
<line x1="455.60145748754235" y1="566.4" x2="670.3141173003817" y2="566.4" stroke="#495057" />
<circle cx="562.957787393962" cy="566.4" r="3" fill="#2F6690" />
<text x="250" y="570.4" text-anchor="end">手术类型=区段截骨不重建</text>
<line x1="481.51796331643374" y1="589.6" x2="671.9914428086336" y2="589.6" stroke="#495057" />
<circle cx="576.7547030625337" cy="589.6" r="3" fill="#2F6690" />
<text x="250" y="593.6" text-anchor="end">手术类型=颏瓣+重建板</text>
<line x1="479.31951942908813" y1="612.8" x2="780.0" y2="612.8" stroke="#495057" />
<circle cx="629.659759714544" cy="612.8" r="3" fill="#2F6690" />
<text x="250" y="616.8" text-anchor="end">手术类型=游离血管化骨肌皮瓣</text>
<line x1="442.93011365545794" y1="46" x2="442.93011365545794" y2="630" stroke="#C8553D" stroke-dasharray="4 2" />
</svg>