<svg xmlns="http://www.w3.org/2000/svg" width="520" height="420" viewBox="0 0 520 420">
<style>text { font-family: Arial, sans-serif; font-size: 12px; fill: #111; }</style>
<text x="260.0" y="24" text-anchor="middle">ROC 曲线（AUC=0.770）</text>
<line x1="60" y1="360" x2="500" y2="360" stroke="#495057" />
<line x1="60" y1="40" x2="60" y2="360" stroke="#495057" />
<line x1="60" y1="360" x2="500" y2="40" stroke="#999" stroke-dasharray="4 2" />
<polyline fill="none" stroke="#2F6690" stroke-width="2" points="60.0,357.3 60.0,354.5 60.0,351.8 60.0,349.1 60.0,346.3 60.0,343.6 67.3,343.6 67.3,340.9 67.3,338.1 67.3,335.4 67.3,332.6 67.3,329.9 67.3,327.2 67.3,324.4 67.3,321.7 67.3,319.0 67.3,316.2 67.3,313.5 67.3,310.8 67.3,308.0 67.3,305.3 67.3,302.6 67.3,299.8 67.3,297.1 74.7,297.1 74.7,294.4 74.7,291.6 74.7,288.9 74.7,286.2 74.7,283.4 74.7,280.7 74.7,277.9 74.7,275.2 74.7,272.5 74.7,269.7 74.7,267.0 74.7,264.3 74.7,261.5 74.7,258.8 74.7,256.1 74.7,253.3 74.7,250.6 74.7,247.9 74.7,245.1 74.7,242.4 82.0,242.4 82.0,239.7 82.0,236.9 82.0,234.2 89.3,234.2 89.3,231.5 89.3,228.7 96.7,228.7 96.7,226.0 104.0,226.0 111.3,226.0 111.3,223.2 111.3,220.5 111.3,217.8 111.3,215.0 111.3,212.3 118.7,212.3 126.0,212.3 133.3,212.3 133.3,209.6 133.3,206.8 133.3,204.1 133.3,201.4 133.3,198.6 133.3,195.9 133.3,193.2 133.3,190.4 133.3,187.7 133.3,185.0 133.3,182.2 133.3,179.5 133.3,176.8 133.3,174.0 140.7,174.0 140.7,171.3 140.7,168.5 140.7,165.8 148.0,165.8 155.3,165.8 155.3,163.1 155.3,160.3 155.3,157.6 162.7,157.6 170.0,157.6 170.0,154.9 170.0,152.1 177.3,152.1 177.3,149.4 184.7,149.4 192.0,149.4 199.3,149.4 199.3,146.7 206.7,146.7 206.7,143.9 206.7,141.2 206.7,138.5 206.7,135.7 206.7,133.0 206.7,130.3 206.7,127.5 214.0,127.5 214.0,124.8 214.0,122.1 221.3,122.1 228.7,122.1 228.7,119.3 236.0,119.3 236.0,116.6 243.3,116.6 250.7,116.6 250.7,113.8 250.7,111.1 250.7,108.4 250.7,105.6 258.0,105.6 258.0,102.9 258.0,100.2 265.3,100.2 272.7,100.2 272.7,97.4 272.7,94.7 280.0,94.7 280.0,92.0 280.0,89.2 287.3,89.2 287.3,86.5 294.7,86.5 302.0,86.5 302.0,83.8 309.3,83.8 309.3,81.0 309.3,78.3 316.7,78.3 316.7,75.6 316.7,72.8 316.7,70.1 324.0,70.1 324.0,67.4 324.0,64.6 324.0,61.9 331.3,61.9 338.7,61.9 338.7,59.1 346.0,59.1 353.3,59.1 353.3,56.4 360.7,56.4 368.0,56.4 375.3,56.4 382.7,56.4 390.0,56.4 390.0,53.7 397.3,53.7 404.7,53.7 412.0,53.7 412.0,50.9 412.0,48.2 419.3,48.2 426.7,48.2 426.7,45.5 426.7,42.7 434.0,42.7 441.3,42.7 448.7,42.7 456.0,42.7 463.3,42.7 470.7,42.7 470.7,40.0 478.0,40.0 485.3,40.0 492.7,40.0 500.0,40.0" />
<text x="260.0" y="400" text-anchor="middle">假阳性率</text>
<text x="16" y="210.0" text-anchor="middle" transform="rotate(-90,16,210.0)">真阳性率</text>
<line x1="360" y1="34" x2="378" y2="34" stroke="#2F6690" stroke-width="2" />
<text x="384" y="38">模型</text>
<line x1="360" y1="48" x2="378" y2="48" stroke="#999" stroke-dasharray="4 2" />
<text x="384" y="52">随机基线</text>
</svg>