<svg xmlns="http://www.w3.org/2000/svg" width="720" height="420" viewBox="0 0 720 420">
<style>text { font-family: Arial, sans-serif; font-size: 12px; fill: #111; }</style>
<text x="360.0" y="26" text-anchor="middle">药物种类分布</text>
<line x1="70" y1="350" x2="700" y2="350" stroke="#264653" />
<text x="18" y="200.0" text-anchor="middle" transform="rotate(-90,18,200.0)">人数</text>
<text x="360.0" y="402" text-anchor="middle">药物类型</text>
<rect x="580" y="22" width="12" height="12" fill="#2A9D8F" />
<text x="598" y="33">人数</text>
<rect x="91.0" y="72.22222222222229" width="63.0" height="277.7777777777777" fill="#2A9D8F" />
<text x="122.5" y="66.22222222222229" text-anchor="middle">120</text>
<text x="122.5" y="366" text-anchor="middle">BPs</text>
<rect x="196.0" y="329.1666666666667" width="63.0" height="20.83333333333333" fill="#2A9D8F" />
<text x="227.5" y="323.1666666666667" text-anchor="middle">9</text>
<text x="227.5" y="366" text-anchor="middle">DMB</text>
<rect x="301.0" y="308.33333333333337" width="63.0" height="41.66666666666666" fill="#2A9D8F" />
<text x="332.5" y="302.33333333333337" text-anchor="middle">18</text>
<text x="332.5" y="366" text-anchor="middle">BPs+DMB</text>
<rect x="406.0" y="331.48148148148147" width="63.0" height="18.518518518518515" fill="#2A9D8F" />
<text x="437.5" y="325.48148148148147" text-anchor="middle">8</text>
<text x="437.5" y="366" text-anchor="middle">免疫调节/抗血管生成</text>
<rect x="511.0" y="292.1296296296296" width="63.0" height="57.87037037037036" fill="#2A9D8F" />
<text x="542.5" y="286.1296296296296" text-anchor="middle">25</text>
<text x="542.5" y="366" text-anchor="middle">BPs+免疫调节/抗血管生成</text>
<rect x="616.0" y="338.4259259259259" width="63.0" height="11.57407407407407" fill="#2A9D8F" />
<text x="647.5" y="332.4259259259259" text-anchor="middle">5</text>
<text x="647.5" y="366" text-anchor="middle">DMB+免疫调节/抗血管生成</text>
</svg>