<svg xmlns="http://www.w3.org/2000/svg" width="720" height="440" viewBox="0 0 720 440">
<style>text { font-family: Arial, sans-serif; font-size: 12px; fill: #111; }</style>
<text x="360.0" y="26" text-anchor="middle">死骨分离多因素回归</text>
<text x="360.0" y="422" text-anchor="middle">log10(OR)</text>
<text x="18" y="215.0" text-anchor="middle" transform="rotate(-90,18,215.0)">变量</text>
<line x1="500" y1="24" x2="516" y2="24" stroke="#6B705C" />
<circle cx="508" cy="24" r="3" fill="#4F6F52" />
<text x="522" y="28">OR 与 95% CI</text>
<line x1="500" y1="40" x2="516" y2="40" stroke="#BC6C25" stroke-dasharray="4 2" />
<text x="522" y="44">OR=1 参考线</text>
<line x1="220" y1="386" x2="680" y2="386" stroke="#6B705C" />
<line x1="220" y1="50" x2="220" y2="380" stroke="#6B705C" />
<line x1="220" y1="56.0" x2="214" y2="56.0" stroke="#6B705C" />
<line x1="220" y1="56.0" x2="680" y2="56.0" stroke="#E6E6E6" />
<line x1="220" y1="138.5" x2="214" y2="138.5" stroke="#6B705C" />
<line x1="220" y1="138.5" x2="680" y2="138.5" stroke="#E6E6E6" />
<line x1="220" y1="221.0" x2="214" y2="221.0" stroke="#6B705C" />
<line x1="220" y1="221.0" x2="680" y2="221.0" stroke="#E6E6E6" />
<line x1="220" y1="303.5" x2="214" y2="303.5" stroke="#6B705C" />
<line x1="220" y1="303.5" x2="680" y2="303.5" stroke="#E6E6E6" />
<line x1="120.31697282799387" y1="386" x2="120.31697282799387" y2="392" stroke="#6B705C" />
<text x="120.31697282799387" y="404" text-anchor="middle">0.10</text>
<line x1="531.7437499779223" y1="386" x2="531.7437499779223" y2="392" stroke="#6B705C" />
<text x="531.7437499779223" y="404" text-anchor="middle">1.0</text>
<line x1="943.1705271278508" y1="386" x2="943.1705271278508" y2="392" stroke="#6B705C" />
<text x="943.1705271278508" y="404" text-anchor="middle">10.0</text>
<line x1="220.0" y1="56.0" x2="543.8951283543058" y2="56.0" stroke="#6B705C" />
<circle cx="381.9475641771529" cy="56.0" r="3" fill="#4F6F52" />
<text x="210" y="60.0" text-anchor="end">钙离子（正常）</text>
<line x1="245.05147899869115" y1="138.5" x2="549.6178680566206" y2="138.5" stroke="#6B705C" />
<circle cx="397.3346735276559" cy="138.5" r="3" fill="#4F6F52" />
<text x="210" y="142.5" text-anchor="end">血色素（正常）</text>
<line x1="516.0822116979559" y1="221.0" x2="527.7929671161364" y2="221.0" stroke="#6B705C" />
<circle cx="521.9375894070463" cy="221.0" r="3" fill="#4F6F52" />
<text x="210" y="225.0" text-anchor="end">出现症状至入院时间</text>
<line x1="379.6815818100762" y1="303.5" x2="680.0" y2="303.5" stroke="#6B705C" />
<circle cx="529.8407909050381" cy="303.5" r="3" fill="#4F6F52" />
<text x="210" y="307.5" text-anchor="end">白蛋白（正常）</text>
<line x1="531.7437499779223" y1="46" x2="531.7437499779223" y2="380" stroke="#BC6C25" stroke-dasharray="4 2" />
</svg>