<svg xmlns="http://www.w3.org/2000/svg" width="720" height="420" viewBox="0 0 720 420">
<style>text { font-family: Arial, sans-serif; font-size: 12px; fill: #111; }</style>
<text x="360.0" y="26" text-anchor="middle">原发病分布（详细）</text>
<line x1="70" y1="350" x2="700" y2="350" stroke="#495057" />
<text x="18" y="200.0" text-anchor="middle" transform="rotate(-90,18,200.0)">人数</text>
<text x="360.0" y="402" text-anchor="middle">原发病</text>
<rect x="580" y="22" width="12" height="12" fill="#2F6690" />
<text x="598" y="33">人数</text>
<rect x="74.66666666666667" y="72.22222222222223" width="13.999999999999998" height="277.77777777777777" fill="#2F6690" />
<text x="81.66666666666667" y="66.22222222222223" text-anchor="middle">53</text>
<text x="81.66666666666667" y="366" text-anchor="middle">乳腺癌</text>
<rect x="98.0" y="166.56184486373166" width="13.999999999999998" height="183.43815513626834" fill="#2F6690" />
<text x="105.0" y="160.56184486373166" text-anchor="middle">35</text>
<text x="105.0" y="366" text-anchor="middle">肺癌</text>
<rect x="121.33333333333333" y="213.73165618448638" width="13.999999999999998" height="136.26834381551362" fill="#2F6690" />
<text x="128.33333333333331" y="207.73165618448638" text-anchor="middle">26</text>
<text x="128.33333333333331" y="366" text-anchor="middle">前列腺癌</text>
<rect x="144.66666666666666" y="239.937106918239" width="13.999999999999998" height="110.062893081761" fill="#2F6690" />
<text x="151.66666666666666" y="233.937106918239" text-anchor="middle">21</text>
<text x="151.66666666666666" y="366" text-anchor="middle">多发性骨髓瘤</text>
<rect x="167.99999999999997" y="281.8658280922432" width="13.999999999999998" height="68.13417190775681" fill="#2F6690" />
<text x="174.99999999999997" y="275.8658280922432" text-anchor="middle">13</text>
<text x="174.99999999999997" y="366" text-anchor="middle">骨质疏松</text>
<rect x="191.33333333333331" y="292.34800838574427" width="13.999999999999998" height="57.65199161425576" fill="#2F6690" />
<text x="198.33333333333331" y="286.34800838574427" text-anchor="middle">11</text>
<text x="198.33333333333331" y="366" text-anchor="middle">肾癌</text>
<rect x="214.66666666666666" y="329.0356394129979" width="13.999999999999998" height="20.964360587002094" fill="#2F6690" />
<text x="221.66666666666666" y="323.0356394129979" text-anchor="middle">4</text>
<text x="221.66666666666666" y="366" text-anchor="middle">肺腺癌</text>
<rect x="237.99999999999997" y="334.27672955974845" width="13.999999999999998" height="15.723270440251572" fill="#2F6690" />
<text x="244.99999999999997" y="328.27672955974845" text-anchor="middle">3</text>
<text x="244.99999999999997" y="366" text-anchor="middle">类风湿性关节炎</text>
<rect x="261.3333333333333" y="339.5178197064989" width="13.999999999999998" height="10.482180293501047" fill="#2F6690" />
<text x="268.3333333333333" y="333.5178197064989" text-anchor="middle">2</text>
<text x="268.3333333333333" y="366" text-anchor="middle">乳腺癌伴骨质疏松</text>
<rect x="284.6666666666667" y="344.75890985324946" width="13.999999999999998" height="5.2410901467505235" fill="#2F6690" />
<text x="291.6666666666667" y="338.75890985324946" text-anchor="middle">1</text>
<text x="291.6666666666667" y="366" text-anchor="middle">阴道癌</text>
<rect x="308.0" y="344.75890985324946" width="13.999999999999998" height="5.2410901467505235" fill="#2F6690" />
<text x="315.0" y="338.75890985324946" text-anchor="middle">1</text>
<text x="315.0" y="366" text-anchor="middle">肺间质性干燥综合征</text>
<rect x="331.3333333333333" y="344.75890985324946" width="13.999999999999998" height="5.2410901467505235" fill="#2F6690" />
<text x="338.3333333333333" y="338.75890985324946" text-anchor="middle">1</text>
<text x="338.3333333333333" y="366" text-anchor="middle">肾透明细胞癌</text>
<rect x="354.6666666666667" y="344.75890985324946" width="13.999999999999998" height="5.2410901467505235" fill="#2F6690" />
<text x="361.6666666666667" y="338.75890985324946" text-anchor="middle">1</text>
<text x="361.6666666666667" y="366" text-anchor="middle">天疱疮+预防骨质疏松</text>
<rect x="378.0" y="344.75890985324946" width="13.999999999999998" height="5.2410901467505235" fill="#2F6690" />
<text x="385.0" y="338.75890985324946" text-anchor="middle">1</text>
<text x="385.0" y="366" text-anchor="middle">骨髓瘤</text>
<rect x="401.3333333333333" y="344.75890985324946" width="13.999999999999998" height="5.2410901467505235" fill="#2F6690" />
<text x="408.3333333333333" y="338.75890985324946" text-anchor="middle">1</text>
<text x="408.3333333333333" y="366" text-anchor="middle">乳腺癌+骨质疏松</text>
<rect x="424.6666666666667" y="344.75890985324946" width="13.999999999999998" height="5.2410901467505235" fill="#2F6690" />
<text x="431.6666666666667" y="338.75890985324946" text-anchor="middle">1</text>
<text x="431.6666666666667" y="366" text-anchor="middle">肺部结节</text>
<rect x="448.0" y="344.75890985324946" width="13.999999999999998" height="5.2410901467505235" fill="#2F6690" />
<text x="455.0" y="338.75890985324946" text-anchor="middle">1</text>
<text x="455.0" y="366" text-anchor="middle">朗格汉斯细胞增生症</text>
<rect x="471.3333333333333" y="344.75890985324946" width="13.999999999999998" height="5.2410901467505235" fill="#2F6690" />
<text x="478.3333333333333" y="338.75890985324946" text-anchor="middle">1</text>
<text x="478.3333333333333" y="366" text-anchor="middle">非小细胞肺癌</text>
<rect x="494.6666666666667" y="344.75890985324946" width="13.999999999999998" height="5.2410901467505235" fill="#2F6690" />
<text x="501.6666666666667" y="338.75890985324946" text-anchor="middle">1</text>
<text x="501.6666666666667" y="366" text-anchor="middle">结肠癌</text>
<rect x="517.9999999999999" y="344.75890985324946" width="13.999999999999998" height="5.2410901467505235" fill="#2F6690" />
<text x="524.9999999999999" y="338.75890985324946" text-anchor="middle">1</text>
<text x="524.9999999999999" y="366" text-anchor="middle">直肠癌</text>
<rect x="541.3333333333333" y="344.75890985324946" width="13.999999999999998" height="5.2410901467505235" fill="#2F6690" />
<text x="548.3333333333333" y="338.75890985324946" text-anchor="middle">1</text>
<text x="548.3333333333333" y="366" text-anchor="middle">类风湿性关节炎伴骨质疏松</text>
<rect x="564.6666666666666" y="344.75890985324946" width="13.999999999999998" height="5.2410901467505235" fill="#2F6690" />
<text x="571.6666666666666" y="338.75890985324946" text-anchor="middle">1</text>
<text x="571.6666666666666" y="366" text-anchor="middle">宫颈癌</text>
<rect x="587.9999999999999" y="344.75890985324946" width="13.999999999999998" height="5.2410901467505235" fill="#2F6690" />
<text x="594.9999999999999" y="338.75890985324946" text-anchor="middle">1</text>
<text x="594.9999999999999" y="366" text-anchor="middle">骨质疏松+胃肠道间质瘤</text>
<rect x="611.3333333333333" y="344.75890985324946" width="13.999999999999998" height="5.2410901467505235" fill="#2F6690" />
<text x="618.3333333333333" y="338.75890985324946" text-anchor="middle">1</text>
<text x="618.3333333333333" y="366" text-anchor="middle">肺小细胞癌</text>
<rect x="634.6666666666666" y="344.75890985324946" width="13.999999999999998" height="5.2410901467505235" fill="#2F6690" />
<text x="641.6666666666666" y="338.75890985324946" text-anchor="middle">1</text>
<text x="641.6666666666666" y="366" text-anchor="middle">乳腺术后</text>
<rect x="657.9999999999999" y="344.75890985324946" width="13.999999999999998" height="5.2410901467505235" fill="#2F6690" />
<text x="664.9999999999999" y="338.75890985324946" text-anchor="middle">1</text>
<text x="664.9999999999999" y="366" text-anchor="middle">卵巢癌</text>
<rect x="681.3333333333333" y="344.75890985324946" width="13.999999999999998" height="5.2410901467505235" fill="#2F6690" />
<text x="688.3333333333333" y="338.75890985324946" text-anchor="middle">1</text>
<text x="688.3333333333333" y="366" text-anchor="middle">肝癌</text>
</svg>