<svg xmlns="http://www.w3.org/2000/svg" width="720" height="420" viewBox="0 0 720 420">
<style>text { font-family: Arial, sans-serif; font-size: 12px; fill: #111; }</style>
<text x="360.0" y="26" text-anchor="middle">死骨分离 vs 病变特点</text>
<line x1="70" y1="350" x2="700" y2="350" stroke="#6B4E3D" />
<text x="18" y="200.0" text-anchor="middle" transform="rotate(-90,18,200.0)">比例</text>
<text x="360.0" y="402" text-anchor="middle">死骨分离</text>
<rect x="540" y="22" width="12" height="12" fill="#C8553D" />
<text x="558" y="33">破坏</text>
<rect x="540" y="38" width="12" height="12" fill="#F2CC8F" />
<text x="558" y="49">硬化</text>
<rect x="540" y="54" width="12" height="12" fill="#84A59D" />
<text x="558" y="65">混合</text>
<rect x="133.0" y="183.33333333333331" width="189.0" height="166.66666666666669" fill="#C8553D" />
<rect x="133.0" y="81.1111111111111" width="189.0" height="102.22222222222221" fill="#F2CC8F" />
<rect x="133.0" y="49.99999999999997" width="189.0" height="31.11111111111111" fill="#84A59D" />
<text x="227.5" y="366" text-anchor="middle">否</text>
<rect x="448.0" y="67.64705882352939" width="189.0" height="282.3529411764706" fill="#C8553D" />
<rect x="448.0" y="61.76470588235292" width="189.0" height="5.88235294117647" fill="#F2CC8F" />
<rect x="448.0" y="49.999999999999986" width="189.0" height="11.76470588235294" fill="#84A59D" />
<text x="542.5" y="366" text-anchor="middle">是</text>
</svg>