<svg xmlns="http://www.w3.org/2000/svg" width="720" height="420" viewBox="0 0 720 420">
<style>text { font-family: Arial, sans-serif; font-size: 12px; fill: #111; }</style>
<text x="360.0" y="26" text-anchor="middle">出现症状至入院时间 vs 病变特点</text>
<line x1="70" y1="350" x2="700" y2="350" stroke="#264653" />
<text x="18" y="200.0" text-anchor="middle" transform="rotate(-90,18,200.0)">月</text>
<text x="360.0" y="402" text-anchor="middle">病变特点</text>
<rect x="500" y="20" width="14" height="14" fill="#8AB17D" />
<text x="520" y="32">密度</text>
<line x1="500" y1="44" x2="516" y2="44" stroke="#E76F51" stroke-width="2" />
<text x="520" y="48">IQR/中位数</text>
<polygon points="202.2,350.0 204.8,347.5 207.3,345.0 209.7,342.4 211.8,339.9 213.7,337.4 215.3,334.9 216.6,332.4 217.5,329.8 218.2,327.3 218.5,324.8 218.5,322.3 218.2,319.7 217.6,317.2 216.8,314.7 215.7,312.2 214.4,309.7 212.9,307.1 211.2,304.6 209.4,302.1 207.5,299.6 205.5,297.1 203.5,294.5 201.5,292.0 199.5,289.5 197.6,287.0 195.9,284.5 194.2,281.9 192.8,279.4 191.5,276.9 190.4,274.4 189.4,271.8 188.6,269.3 188.0,266.8 187.5,264.3 187.0,261.8 186.6,259.2 186.2,256.7 185.8,254.2 185.4,251.7 185.0,249.2 184.5,246.6 184.0,244.1 183.4,241.6 182.9,239.1 182.3,236.6 181.7,234.0 181.2,231.5 180.8,229.0 180.4,226.5 180.0,223.9 179.8,221.4 179.6,218.9 179.4,216.4 179.3,213.9 179.3,211.3 179.2,208.8 179.2,206.3 179.1,203.8 179.0,201.3 178.9,198.7 178.8,196.2 178.6,193.7 178.4,191.2 178.2,188.7 177.9,186.1 177.7,183.6 177.4,181.1 177.2,178.6 176.9,176.1 176.7,173.5 176.5,171.0 176.4,168.5 176.2,166.0 176.1,163.4 176.0,160.9 175.9,158.4 175.9,155.9 175.8,153.4 175.8,150.8 175.7,148.3 175.7,145.8 175.7,143.3 175.7,140.8 175.6,138.2 175.6,135.7 175.6,133.2 175.6,130.7 175.6,128.2 175.5,125.6 175.5,123.1 175.6,120.6 175.6,118.1 175.6,115.5 175.6,113.0 175.6,110.5 175.6,108.0 175.6,105.5 175.7,102.9 175.7,100.4 175.7,97.9 175.6,95.4 175.6,92.9 175.6,90.3 175.6,87.8 175.6,85.3 175.6,82.8 175.6,80.3 175.5,77.7 175.5,75.2 175.5,72.7 175.6,70.2 175.6,67.6 175.6,65.1 175.6,62.6 175.6,60.1 175.6,57.6 175.6,55.0 175.6,52.5 175.6,50.0 174.4,50.0 174.4,52.5 174.4,55.0 174.4,57.6 174.4,60.1 174.4,62.6 174.4,65.1 174.4,67.6 174.4,70.2 174.5,72.7 174.5,75.2 174.5,77.7 174.4,80.3 174.4,82.8 174.4,85.3 174.4,87.8 174.4,90.3 174.4,92.9 174.4,95.4 174.3,97.9 174.3,100.4 174.3,102.9 174.4,105.5 174.4,108.0 174.4,110.5 174.4,113.0 174.4,115.5 174.4,118.1 174.4,120.6 174.5,123.1 174.5,125.6 174.4,128.2 174.4,130.7 174.4,133.2 174.4,135.7 174.4,138.2 174.3,140.8 174.3,143.3 174.3,145.8 174.3,148.3 174.2,150.8 174.2,153.4 174.1,155.9 174.1,158.4 174.0,160.9 173.9,163.4 173.8,166.0 173.6,168.5 173.5,171.0 173.3,173.5 173.1,176.1 172.8,178.6 172.6,181.1 172.3,183.6 172.1,186.1 171.8,188.7 171.6,191.2 171.4,193.7 171.2,196.2 171.1,198.7 171.0,201.3 170.9,203.8 170.8,206.3 170.8,208.8 170.7,211.3 170.7,213.9 170.6,216.4 170.4,218.9 170.2,221.4 170.0,223.9 169.6,226.5 169.2,229.0 168.8,231.5 168.3,234.0 167.7,236.6 167.1,239.1 166.6,241.6 166.0,244.1 165.5,246.6 165.0,249.2 164.6,251.7 164.2,254.2 163.8,256.7 163.4,259.2 163.0,261.8 162.5,264.3 162.0,266.8 161.4,269.3 160.6,271.8 159.6,274.4 158.5,276.9 157.2,279.4 155.8,281.9 154.1,284.5 152.4,287.0 150.5,289.5 148.5,292.0 146.5,294.5 144.5,297.1 142.5,299.6 140.6,302.1 138.8,304.6 137.1,307.1 135.6,309.7 134.3,312.2 133.2,314.7 132.4,317.2 131.8,319.7 131.5,322.3 131.5,324.8 131.8,327.3 132.5,329.8 133.4,332.4 134.7,334.9 136.3,337.4 138.2,339.9 140.3,342.4 142.7,345.0 145.2,347.5 147.8,350.0" fill="#8AB17D" stroke="#264653" />
<line x1="175.0" y1="301.74825174825173" x2="175.0" y2="335.31468531468533" stroke="#E76F51" stroke-width="2" />
<line x1="130.9" y1="314.3356643356643" x2="219.1" y2="314.3356643356643" stroke="#E76F51" stroke-width="2" />
<text x="175.0" y="366" text-anchor="middle">破坏</text>
<polygon points="430.2,350.0 436.6,347.5 442.7,345.0 448.1,342.4 452.6,339.9 455.9,337.4 457.9,334.9 458.5,332.4 457.7,329.8 455.6,327.3 452.2,324.8 447.9,322.3 442.8,319.7 437.3,317.2 431.5,314.7 425.7,312.2 420.2,309.7 414.9,307.1 410.2,304.6 406.0,302.1 402.5,299.6 399.5,297.1 397.1,294.5 395.3,292.0 393.9,289.5 392.9,287.0 392.2,284.5 391.8,281.9 391.6,279.4 391.4,276.9 391.3,274.4 391.3,271.8 391.2,269.3 391.2,266.8 391.1,264.3 391.1,261.8 391.0,259.2 390.9,256.7 390.7,254.2 390.5,251.7 390.1,249.2 389.7,246.6 389.3,244.1 388.8,241.6 388.3,239.1 387.8,236.6 387.3,234.0 386.9,231.5 386.6,229.0 386.4,226.5 386.3,223.9 386.3,221.4 386.3,218.9 386.4,216.4 386.6,213.9 386.8,211.3 387.0,208.8 387.1,206.3 387.2,203.8 387.3,201.3 387.2,198.7 387.1,196.2 387.0,193.7 386.8,191.2 386.5,188.7 386.3,186.1 386.0,183.6 385.8,181.1 385.6,178.6 385.5,176.1 385.3,173.5 385.2,171.0 385.2,168.5 385.1,166.0 385.1,163.4 385.0,160.9 385.0,158.4 385.0,155.9 385.0,153.4 385.0,150.8 385.0,148.3 385.0,145.8 385.0,143.3 385.0,140.8 385.0,138.2 385.0,135.7 385.0,133.2 385.0,130.7 385.0,128.2 385.0,125.6 385.0,123.1 385.0,120.6 385.0,118.1 385.0,115.5 385.0,113.0 385.0,110.5 385.0,108.0 385.0,105.5 385.0,102.9 385.0,100.4 385.0,97.9 385.0,95.4 385.0,92.9 385.0,90.3 385.0,87.8 385.0,85.3 385.0,82.8 385.0,80.3 385.0,77.7 385.0,75.2 385.0,72.7 385.0,70.2 385.0,67.6 385.0,65.1 385.0,62.6 385.0,60.1 385.0,57.6 385.0,55.0 385.0,52.5 385.0,50.0 385.0,50.0 385.0,52.5 385.0,55.0 385.0,57.6 385.0,60.1 385.0,62.6 385.0,65.1 385.0,67.6 385.0,70.2 385.0,72.7 385.0,75.2 385.0,77.7 385.0,80.3 385.0,82.8 385.0,85.3 385.0,87.8 385.0,90.3 385.0,92.9 385.0,95.4 385.0,97.9 385.0,100.4 385.0,102.9 385.0,105.5 385.0,108.0 385.0,110.5 385.0,113.0 385.0,115.5 385.0,118.1 385.0,120.6 385.0,123.1 385.0,125.6 385.0,128.2 385.0,130.7 385.0,133.2 385.0,135.7 385.0,138.2 385.0,140.8 385.0,143.3 385.0,145.8 385.0,148.3 385.0,150.8 385.0,153.4 385.0,155.9 385.0,158.4 385.0,160.9 384.9,163.4 384.9,166.0 384.8,168.5 384.8,171.0 384.7,173.5 384.5,176.1 384.4,178.6 384.2,181.1 384.0,183.6 383.7,186.1 383.5,188.7 383.2,191.2 383.0,193.7 382.9,196.2 382.8,198.7 382.7,201.3 382.8,203.8 382.9,206.3 383.0,208.8 383.2,211.3 383.4,213.9 383.6,216.4 383.7,218.9 383.7,221.4 383.7,223.9 383.6,226.5 383.4,229.0 383.1,231.5 382.7,234.0 382.2,236.6 381.7,239.1 381.2,241.6 380.7,244.1 380.3,246.6 379.9,249.2 379.5,251.7 379.3,254.2 379.1,256.7 379.0,259.2 378.9,261.8 378.9,264.3 378.8,266.8 378.8,269.3 378.7,271.8 378.7,274.4 378.6,276.9 378.4,279.4 378.2,281.9 377.8,284.5 377.1,287.0 376.1,289.5 374.7,292.0 372.9,294.5 370.5,297.1 367.5,299.6 364.0,302.1 359.8,304.6 355.1,307.1 349.8,309.7 344.3,312.2 338.5,314.7 332.7,317.2 327.2,319.7 322.1,322.3 317.8,324.8 314.4,327.3 312.3,329.8 311.5,332.4 312.1,334.9 314.1,337.4 317.4,339.9 321.9,342.4 327.3,345.0 333.4,347.5 339.8,350.0" fill="#8AB17D" stroke="#264653" />
<line x1="385.0" y1="320.6293706293706" x2="385.0" y2="339.5104895104895" stroke="#E76F51" stroke-width="2" />
<line x1="340.9" y1="326.9230769230769" x2="429.1" y2="326.9230769230769" stroke="#E76F51" stroke-width="2" />
<text x="385.0" y="366" text-anchor="middle">硬化</text>
<polygon points="624.2,350.0 625.9,347.5 627.6,345.0 629.0,342.4 630.3,339.9 631.4,337.4 632.3,334.9 633.0,332.4 633.4,329.8 633.7,327.3 633.6,324.8 633.3,322.3 632.9,319.7 632.2,317.2 631.3,314.7 630.2,312.2 629.0,309.7 627.6,307.1 626.1,304.6 624.6,302.1 623.0,299.6 621.3,297.1 619.7,294.5 618.1,292.0 616.5,289.5 614.9,287.0 613.5,284.5 612.1,281.9 610.8,279.4 609.6,276.9 608.6,274.4 607.6,271.8 606.8,269.3 606.0,266.8 605.4,264.3 604.9,261.8 604.5,259.2 604.2,256.7 603.9,254.2 603.7,251.7 603.6,249.2 603.5,246.6 603.4,244.1 603.4,241.6 603.3,239.1 603.3,236.6 603.3,234.0 603.3,231.5 603.3,229.0 603.2,226.5 603.1,223.9 603.0,221.4 602.9,218.9 602.8,216.4 602.6,213.9 602.4,211.3 602.2,208.8 601.9,206.3 601.7,203.8 601.4,201.3 601.0,198.7 600.7,196.2 600.4,193.7 600.0,191.2 599.7,188.7 599.3,186.1 598.9,183.6 598.6,181.1 598.2,178.6 597.9,176.1 597.6,173.5 597.3,171.0 597.0,168.5 596.8,166.0 596.5,163.4 596.3,160.9 596.1,158.4 595.9,155.9 595.8,153.4 595.7,150.8 595.5,148.3 595.4,145.8 595.4,143.3 595.3,140.8 595.2,138.2 595.2,135.7 595.1,133.2 595.1,130.7 595.1,128.2 595.1,125.6 595.0,123.1 595.0,120.6 595.0,118.1 595.0,115.5 595.0,113.0 595.0,110.5 595.0,108.0 595.0,105.5 595.0,102.9 595.0,100.4 595.0,97.9 595.0,95.4 595.0,92.9 595.0,90.3 595.0,87.8 595.0,85.3 595.0,82.8 595.0,80.3 595.0,77.7 595.0,75.2 595.0,72.7 595.0,70.2 595.0,67.6 595.0,65.1 595.0,62.6 595.0,60.1 595.0,57.6 595.0,55.0 595.0,52.5 595.0,50.0 595.0,50.0 595.0,52.5 595.0,55.0 595.0,57.6 595.0,60.1 595.0,62.6 595.0,65.1 595.0,67.6 595.0,70.2 595.0,72.7 595.0,75.2 595.0,77.7 595.0,80.3 595.0,82.8 595.0,85.3 595.0,87.8 595.0,90.3 595.0,92.9 595.0,95.4 595.0,97.9 595.0,100.4 595.0,102.9 595.0,105.5 595.0,108.0 595.0,110.5 595.0,113.0 595.0,115.5 595.0,118.1 595.0,120.6 595.0,123.1 594.9,125.6 594.9,128.2 594.9,130.7 594.9,133.2 594.8,135.7 594.8,138.2 594.7,140.8 594.6,143.3 594.6,145.8 594.5,148.3 594.3,150.8 594.2,153.4 594.1,155.9 593.9,158.4 593.7,160.9 593.5,163.4 593.2,166.0 593.0,168.5 592.7,171.0 592.4,173.5 592.1,176.1 591.8,178.6 591.4,181.1 591.1,183.6 590.7,186.1 590.3,188.7 590.0,191.2 589.6,193.7 589.3,196.2 589.0,198.7 588.6,201.3 588.3,203.8 588.1,206.3 587.8,208.8 587.6,211.3 587.4,213.9 587.2,216.4 587.1,218.9 587.0,221.4 586.9,223.9 586.8,226.5 586.7,229.0 586.7,231.5 586.7,234.0 586.7,236.6 586.7,239.1 586.6,241.6 586.6,244.1 586.5,246.6 586.4,249.2 586.3,251.7 586.1,254.2 585.8,256.7 585.5,259.2 585.1,261.8 584.6,264.3 584.0,266.8 583.2,269.3 582.4,271.8 581.4,274.4 580.4,276.9 579.2,279.4 577.9,281.9 576.5,284.5 575.1,287.0 573.5,289.5 571.9,292.0 570.3,294.5 568.7,297.1 567.0,299.6 565.4,302.1 563.9,304.6 562.4,307.1 561.0,309.7 559.8,312.2 558.7,314.7 557.8,317.2 557.1,319.7 556.7,322.3 556.4,324.8 556.3,327.3 556.6,329.8 557.0,332.4 557.7,334.9 558.6,337.4 559.7,339.9 561.0,342.4 562.4,345.0 564.1,347.5 565.8,350.0" fill="#8AB17D" stroke="#264653" />
<line x1="595.0" y1="301.74825174825173" x2="595.0" y2="336.3636363636364" stroke="#E76F51" stroke-width="2" />
<line x1="550.9" y1="324.8251748251748" x2="639.1" y2="324.8251748251748" stroke="#E76F51" stroke-width="2" />
<text x="595.0" y="366" text-anchor="middle">混合</text>
</svg>